<mxfile host="Electron" agent="Mozilla/5.0 (Windows NT 10.0; Win64; x64) AppleWebKit/537.36 (KHTML, like Gecko) draw.io/27.0.2 Chrome/134.0.6998.205 Electron/35.3.0 Safari/537.36" version="27.0.2">
  <diagram name="Page-1" id="A6NhABvrQZ76DW8AFj8i">
    <mxGraphModel dx="4572" dy="2102" grid="1" gridSize="10" guides="1" tooltips="1" connect="1" arrows="1" fold="1" page="1" pageScale="1" pageWidth="850" pageHeight="1100" math="0" shadow="0">
      <root>
        <mxCell id="0" />
        <mxCell id="1" parent="0" />
        <mxCell id="hll2jXJH_OL2cmdzYWr9-10" style="edgeStyle=orthogonalEdgeStyle;rounded=0;orthogonalLoop=1;jettySize=auto;html=1;exitX=0.75;exitY=1;exitDx=0;exitDy=0;entryX=0.5;entryY=0;entryDx=0;entryDy=0;" parent="1" source="WPqpw8OH2dosxsMt212a-1" target="8inZqM1Nh-mBHfwORftA-2" edge="1">
          <mxGeometry relative="1" as="geometry" />
        </mxCell>
        <mxCell id="hll2jXJH_OL2cmdzYWr9-11" value="client_num" style="edgeLabel;html=1;align=center;verticalAlign=middle;resizable=0;points=[];" parent="hll2jXJH_OL2cmdzYWr9-10" vertex="1" connectable="0">
          <mxGeometry x="-0.0943" y="-3" relative="1" as="geometry">
            <mxPoint x="1" as="offset" />
          </mxGeometry>
        </mxCell>
        <mxCell id="hll2jXJH_OL2cmdzYWr9-106" style="edgeStyle=orthogonalEdgeStyle;rounded=0;orthogonalLoop=1;jettySize=auto;html=1;exitX=0.25;exitY=0;exitDx=0;exitDy=0;entryX=1;entryY=0.5;entryDx=0;entryDy=0;" parent="1" source="WPqpw8OH2dosxsMt212a-1" target="hll2jXJH_OL2cmdzYWr9-95" edge="1">
          <mxGeometry relative="1" as="geometry" />
        </mxCell>
        <mxCell id="hll2jXJH_OL2cmdzYWr9-107" value="massage_text" style="edgeLabel;html=1;align=center;verticalAlign=middle;resizable=0;points=[];" parent="hll2jXJH_OL2cmdzYWr9-106" vertex="1" connectable="0">
          <mxGeometry x="-0.2068" y="5" relative="1" as="geometry">
            <mxPoint as="offset" />
          </mxGeometry>
        </mxCell>
        <mxCell id="hUjVaZttQKEgmbLeLdVR-53" style="edgeStyle=orthogonalEdgeStyle;rounded=0;orthogonalLoop=1;jettySize=auto;html=1;exitX=0.5;exitY=1;exitDx=0;exitDy=0;entryX=0.25;entryY=0;entryDx=0;entryDy=0;" edge="1" parent="1" source="WPqpw8OH2dosxsMt212a-1" target="hUjVaZttQKEgmbLeLdVR-50">
          <mxGeometry relative="1" as="geometry" />
        </mxCell>
        <mxCell id="hUjVaZttQKEgmbLeLdVR-54" value="request_info" style="edgeLabel;html=1;align=center;verticalAlign=middle;resizable=0;points=[];" vertex="1" connectable="0" parent="hUjVaZttQKEgmbLeLdVR-53">
          <mxGeometry x="0.7287" y="11" relative="1" as="geometry">
            <mxPoint as="offset" />
          </mxGeometry>
        </mxCell>
        <mxCell id="WPqpw8OH2dosxsMt212a-1" value="Client" style="rounded=0;whiteSpace=wrap;html=1;" parent="1" vertex="1">
          <mxGeometry x="-1710" y="100" width="230" height="120" as="geometry" />
        </mxCell>
        <mxCell id="WPqpw8OH2dosxsMt212a-2" value="2.1" style="swimlane;childLayout=stackLayout;horizontal=1;startSize=50;horizontalStack=0;rounded=1;fontSize=14;fontStyle=0;strokeWidth=2;resizeParent=0;resizeLast=1;shadow=0;dashed=0;align=center;arcSize=4;whiteSpace=wrap;html=1;" parent="1" vertex="1">
          <mxGeometry x="-1020" y="70" width="160" height="120" as="geometry" />
        </mxCell>
        <mxCell id="WPqpw8OH2dosxsMt212a-12" value="List_car" style="text;html=1;align=center;verticalAlign=middle;resizable=0;points=[];autosize=1;strokeColor=none;fillColor=none;" parent="WPqpw8OH2dosxsMt212a-2" vertex="1">
          <mxGeometry y="50" width="160" height="70" as="geometry" />
        </mxCell>
        <mxCell id="yKhPgB3xR9wps0WLkA4A-12" style="edgeStyle=orthogonalEdgeStyle;rounded=0;orthogonalLoop=1;jettySize=auto;html=1;exitX=1;exitY=0.5;exitDx=0;exitDy=0;" parent="1" source="WPqpw8OH2dosxsMt212a-4" target="WPqpw8OH2dosxsMt212a-12" edge="1">
          <mxGeometry relative="1" as="geometry" />
        </mxCell>
        <mxCell id="hll2jXJH_OL2cmdzYWr9-8" value="avaliable_cars" style="edgeLabel;html=1;align=center;verticalAlign=middle;resizable=0;points=[];" parent="yKhPgB3xR9wps0WLkA4A-12" vertex="1" connectable="0">
          <mxGeometry x="-0.0605" y="2" relative="1" as="geometry">
            <mxPoint y="-1" as="offset" />
          </mxGeometry>
        </mxCell>
        <mxCell id="WPqpw8OH2dosxsMt212a-4" value="&amp;nbsp; &amp;nbsp; &amp;nbsp; &amp;nbsp; &amp;nbsp;Avaliable_&lt;div&gt;&amp;nbsp; &amp;nbsp; &amp;nbsp; &amp;nbsp; &amp;nbsp;car&lt;/div&gt;" style="html=1;dashed=0;whiteSpace=wrap;shape=mxgraph.dfd.dataStoreID;align=left;spacingLeft=3;points=[[0,0],[0.5,0],[1,0],[0,0.5],[1,0.5],[0,1],[0.5,1],[1,1]];" parent="1" vertex="1">
          <mxGeometry x="-1390" width="230" height="120" as="geometry" />
        </mxCell>
        <mxCell id="WPqpw8OH2dosxsMt212a-5" value="2.2" style="swimlane;childLayout=stackLayout;horizontal=1;startSize=50;horizontalStack=0;rounded=1;fontSize=14;fontStyle=0;strokeWidth=2;resizeParent=0;resizeLast=1;shadow=0;dashed=0;align=center;arcSize=4;whiteSpace=wrap;html=1;" parent="1" vertex="1">
          <mxGeometry x="-450" y="60" width="160" height="120" as="geometry" />
        </mxCell>
        <mxCell id="WPqpw8OH2dosxsMt212a-13" value="Select_car" style="text;html=1;align=center;verticalAlign=middle;resizable=0;points=[];autosize=1;strokeColor=none;fillColor=none;" parent="WPqpw8OH2dosxsMt212a-5" vertex="1">
          <mxGeometry y="50" width="160" height="70" as="geometry" />
        </mxCell>
        <mxCell id="WPqpw8OH2dosxsMt212a-7" value="2.3" style="swimlane;childLayout=stackLayout;horizontal=1;startSize=50;horizontalStack=0;rounded=1;fontSize=14;fontStyle=0;strokeWidth=2;resizeParent=0;resizeLast=1;shadow=0;dashed=0;align=center;arcSize=4;whiteSpace=wrap;html=1;" parent="1" vertex="1">
          <mxGeometry x="-150" y="65" width="160" height="120" as="geometry" />
        </mxCell>
        <mxCell id="WPqpw8OH2dosxsMt212a-14" value="Enter_details" style="text;html=1;align=center;verticalAlign=middle;resizable=0;points=[];autosize=1;strokeColor=none;fillColor=none;" parent="WPqpw8OH2dosxsMt212a-7" vertex="1">
          <mxGeometry y="50" width="160" height="70" as="geometry" />
        </mxCell>
        <mxCell id="-Z-DS7IXJV0FyssEUXty-7" style="edgeStyle=orthogonalEdgeStyle;rounded=0;orthogonalLoop=1;jettySize=auto;html=1;exitX=0;exitY=0.25;exitDx=0;exitDy=0;entryX=0.75;entryY=0;entryDx=0;entryDy=0;" parent="1" source="WPqpw8OH2dosxsMt212a-9" target="WPqpw8OH2dosxsMt212a-2" edge="1">
          <mxGeometry relative="1" as="geometry">
            <mxPoint x="660" y="290" as="targetPoint" />
          </mxGeometry>
        </mxCell>
        <mxCell id="-Z-DS7IXJV0FyssEUXty-10" value="no" style="edgeLabel;html=1;align=center;verticalAlign=middle;resizable=0;points=[];" parent="-Z-DS7IXJV0FyssEUXty-7" vertex="1" connectable="0">
          <mxGeometry x="-0.4172" relative="1" as="geometry">
            <mxPoint as="offset" />
          </mxGeometry>
        </mxCell>
        <mxCell id="WPqpw8OH2dosxsMt212a-9" value="2.4" style="swimlane;childLayout=stackLayout;horizontal=1;startSize=50;horizontalStack=0;rounded=1;fontSize=14;fontStyle=0;strokeWidth=2;resizeParent=0;resizeLast=1;shadow=0;dashed=0;align=center;arcSize=4;whiteSpace=wrap;html=1;" parent="1" vertex="1">
          <mxGeometry x="-760" y="50" width="160" height="120" as="geometry" />
        </mxCell>
        <mxCell id="WPqpw8OH2dosxsMt212a-18" value="Compare_with_budget" style="text;html=1;align=center;verticalAlign=middle;resizable=0;points=[];autosize=1;strokeColor=none;fillColor=none;" parent="WPqpw8OH2dosxsMt212a-9" vertex="1">
          <mxGeometry y="50" width="160" height="70" as="geometry" />
        </mxCell>
        <mxCell id="8inZqM1Nh-mBHfwORftA-11" style="edgeStyle=orthogonalEdgeStyle;rounded=0;orthogonalLoop=1;jettySize=auto;html=1;exitX=-0.016;exitY=0.647;exitDx=0;exitDy=0;exitPerimeter=0;" parent="1" source="WPqpw8OH2dosxsMt212a-11" target="WPqpw8OH2dosxsMt212a-7" edge="1">
          <mxGeometry relative="1" as="geometry" />
        </mxCell>
        <mxCell id="8inZqM1Nh-mBHfwORftA-12" value="rental_request" style="edgeLabel;html=1;align=center;verticalAlign=middle;resizable=0;points=[];" parent="8inZqM1Nh-mBHfwORftA-11" vertex="1" connectable="0">
          <mxGeometry x="0.2071" y="2" relative="1" as="geometry">
            <mxPoint x="6" y="2" as="offset" />
          </mxGeometry>
        </mxCell>
        <mxCell id="hll2jXJH_OL2cmdzYWr9-42" style="edgeStyle=orthogonalEdgeStyle;rounded=0;orthogonalLoop=1;jettySize=auto;html=1;exitX=0.5;exitY=1;exitDx=0;exitDy=0;entryX=1;entryY=0.25;entryDx=0;entryDy=0;" parent="1" source="WPqpw8OH2dosxsMt212a-11" target="8inZqM1Nh-mBHfwORftA-2" edge="1">
          <mxGeometry relative="1" as="geometry" />
        </mxCell>
        <mxCell id="hll2jXJH_OL2cmdzYWr9-43" value="all_requests" style="edgeLabel;html=1;align=center;verticalAlign=middle;resizable=0;points=[];" parent="hll2jXJH_OL2cmdzYWr9-42" vertex="1" connectable="0">
          <mxGeometry x="0.2891" y="2" relative="1" as="geometry">
            <mxPoint as="offset" />
          </mxGeometry>
        </mxCell>
        <mxCell id="WPqpw8OH2dosxsMt212a-11" value="&amp;nbsp; &amp;nbsp; &amp;nbsp; &amp;nbsp; &amp;nbsp;Requests" style="html=1;dashed=0;whiteSpace=wrap;shape=mxgraph.dfd.dataStoreID;align=left;spacingLeft=3;points=[[0,0],[0.5,0],[1,0],[0,0.5],[1,0.5],[0,1],[0.5,1],[1,1]];" parent="1" vertex="1">
          <mxGeometry x="180" y="60" width="180" height="90" as="geometry" />
        </mxCell>
        <mxCell id="WPqpw8OH2dosxsMt212a-46" style="edgeStyle=orthogonalEdgeStyle;rounded=0;orthogonalLoop=1;jettySize=auto;html=1;exitX=1.022;exitY=0.039;exitDx=0;exitDy=0;entryX=0.006;entryY=0.325;entryDx=0;entryDy=0;entryPerimeter=0;exitPerimeter=0;" parent="1" source="WPqpw8OH2dosxsMt212a-18" target="WPqpw8OH2dosxsMt212a-13" edge="1">
          <mxGeometry relative="1" as="geometry" />
        </mxCell>
        <mxCell id="-Z-DS7IXJV0FyssEUXty-11" value="yes" style="edgeLabel;html=1;align=center;verticalAlign=middle;resizable=0;points=[];" parent="WPqpw8OH2dosxsMt212a-46" vertex="1" connectable="0">
          <mxGeometry x="-0.2888" y="-3" relative="1" as="geometry">
            <mxPoint as="offset" />
          </mxGeometry>
        </mxCell>
        <mxCell id="WPqpw8OH2dosxsMt212a-49" style="edgeStyle=orthogonalEdgeStyle;rounded=0;orthogonalLoop=1;jettySize=auto;html=1;exitX=1.03;exitY=0.271;exitDx=0;exitDy=0;entryX=0;entryY=0.75;entryDx=0;entryDy=0;exitPerimeter=0;" parent="1" source="WPqpw8OH2dosxsMt212a-13" target="WPqpw8OH2dosxsMt212a-7" edge="1">
          <mxGeometry relative="1" as="geometry" />
        </mxCell>
        <mxCell id="-Z-DS7IXJV0FyssEUXty-12" value="car_details" style="edgeLabel;html=1;align=center;verticalAlign=middle;resizable=0;points=[];" parent="WPqpw8OH2dosxsMt212a-49" vertex="1" connectable="0">
          <mxGeometry x="-0.208" y="2" relative="1" as="geometry">
            <mxPoint x="-1" as="offset" />
          </mxGeometry>
        </mxCell>
        <mxCell id="-Z-DS7IXJV0FyssEUXty-19" value="2.5" style="swimlane;childLayout=stackLayout;horizontal=1;startSize=50;horizontalStack=0;rounded=1;fontSize=14;fontStyle=0;strokeWidth=2;resizeParent=0;resizeLast=1;shadow=0;dashed=0;align=center;arcSize=4;whiteSpace=wrap;html=1;" parent="1" vertex="1">
          <mxGeometry x="-1320" y="-260" width="160" height="120" as="geometry" />
        </mxCell>
        <mxCell id="-Z-DS7IXJV0FyssEUXty-21" value="Log_In" style="text;html=1;align=center;verticalAlign=middle;resizable=0;points=[];autosize=1;strokeColor=none;fillColor=none;" parent="-Z-DS7IXJV0FyssEUXty-19" vertex="1">
          <mxGeometry y="50" width="160" height="70" as="geometry" />
        </mxCell>
        <mxCell id="-Z-DS7IXJV0FyssEUXty-37" style="edgeStyle=orthogonalEdgeStyle;rounded=0;orthogonalLoop=1;jettySize=auto;html=1;exitX=0.5;exitY=1;exitDx=0;exitDy=0;entryX=0.5;entryY=0;entryDx=0;entryDy=0;" parent="1" source="-Z-DS7IXJV0FyssEUXty-26" target="WPqpw8OH2dosxsMt212a-2" edge="1">
          <mxGeometry relative="1" as="geometry">
            <mxPoint x="420" y="190" as="targetPoint" />
          </mxGeometry>
        </mxCell>
        <mxCell id="-Z-DS7IXJV0FyssEUXty-46" value="credentials_valid" style="edgeLabel;html=1;align=center;verticalAlign=middle;resizable=0;points=[];" parent="-Z-DS7IXJV0FyssEUXty-37" vertex="1" connectable="0">
          <mxGeometry x="-0.5771" y="3" relative="1" as="geometry">
            <mxPoint y="1" as="offset" />
          </mxGeometry>
        </mxCell>
        <mxCell id="-Z-DS7IXJV0FyssEUXty-26" value="2.6" style="swimlane;childLayout=stackLayout;horizontal=1;startSize=50;horizontalStack=0;rounded=1;fontSize=14;fontStyle=0;strokeWidth=2;resizeParent=0;resizeLast=1;shadow=0;dashed=0;align=center;arcSize=4;whiteSpace=wrap;html=1;" parent="1" vertex="1">
          <mxGeometry x="-930" y="-250" width="160" height="120" as="geometry" />
        </mxCell>
        <mxCell id="-Z-DS7IXJV0FyssEUXty-28" value="Is_Found" style="text;html=1;align=center;verticalAlign=middle;resizable=0;points=[];autosize=1;strokeColor=none;fillColor=none;" parent="-Z-DS7IXJV0FyssEUXty-26" vertex="1">
          <mxGeometry y="50" width="160" height="70" as="geometry" />
        </mxCell>
        <mxCell id="-Z-DS7IXJV0FyssEUXty-29" value="2.7" style="swimlane;childLayout=stackLayout;horizontal=1;startSize=50;horizontalStack=0;rounded=1;fontSize=14;fontStyle=0;strokeWidth=2;resizeParent=0;resizeLast=1;shadow=0;dashed=0;align=center;arcSize=4;whiteSpace=wrap;html=1;" parent="1" vertex="1">
          <mxGeometry x="-480" y="-260" width="160" height="120" as="geometry" />
        </mxCell>
        <mxCell id="-Z-DS7IXJV0FyssEUXty-31" value="Sign_Up" style="text;html=1;align=center;verticalAlign=middle;resizable=0;points=[];autosize=1;strokeColor=none;fillColor=none;" parent="-Z-DS7IXJV0FyssEUXty-29" vertex="1">
          <mxGeometry y="50" width="160" height="70" as="geometry" />
        </mxCell>
        <mxCell id="hUjVaZttQKEgmbLeLdVR-31" style="edgeStyle=orthogonalEdgeStyle;rounded=0;orthogonalLoop=1;jettySize=auto;html=1;exitX=1;exitY=0.5;exitDx=0;exitDy=0;entryX=0;entryY=0.25;entryDx=0;entryDy=0;" edge="1" parent="1" source="-Z-DS7IXJV0FyssEUXty-32" target="hUjVaZttQKEgmbLeLdVR-1">
          <mxGeometry relative="1" as="geometry" />
        </mxCell>
        <mxCell id="hUjVaZttQKEgmbLeLdVR-32" value="client_status" style="edgeLabel;html=1;align=center;verticalAlign=middle;resizable=0;points=[];" vertex="1" connectable="0" parent="hUjVaZttQKEgmbLeLdVR-31">
          <mxGeometry x="0.0365" y="-4" relative="1" as="geometry">
            <mxPoint as="offset" />
          </mxGeometry>
        </mxCell>
        <mxCell id="-Z-DS7IXJV0FyssEUXty-32" value="&amp;nbsp; &amp;nbsp; &amp;nbsp; &amp;nbsp; &amp;nbsp; &amp;nbsp; &amp;nbsp;Ciients" style="html=1;dashed=0;whiteSpace=wrap;shape=mxgraph.dfd.dataStoreID;align=left;spacingLeft=3;points=[[0,0],[0.5,0],[1,0],[0,0.5],[1,0.5],[0,1],[0.5,1],[1,1]];" parent="1" vertex="1">
          <mxGeometry x="-180" y="-500" width="320" height="110" as="geometry" />
        </mxCell>
        <mxCell id="-Z-DS7IXJV0FyssEUXty-33" style="edgeStyle=orthogonalEdgeStyle;rounded=0;orthogonalLoop=1;jettySize=auto;html=1;exitX=0.5;exitY=0;exitDx=0;exitDy=0;entryX=0;entryY=0.5;entryDx=0;entryDy=0;" parent="1" source="WPqpw8OH2dosxsMt212a-1" target="-Z-DS7IXJV0FyssEUXty-19" edge="1">
          <mxGeometry relative="1" as="geometry" />
        </mxCell>
        <mxCell id="-Z-DS7IXJV0FyssEUXty-44" value="log_in_credentials" style="edgeLabel;html=1;align=center;verticalAlign=middle;resizable=0;points=[];" parent="-Z-DS7IXJV0FyssEUXty-33" vertex="1" connectable="0">
          <mxGeometry x="0.1002" relative="1" as="geometry">
            <mxPoint as="offset" />
          </mxGeometry>
        </mxCell>
        <mxCell id="-Z-DS7IXJV0FyssEUXty-36" style="edgeStyle=orthogonalEdgeStyle;rounded=0;orthogonalLoop=1;jettySize=auto;html=1;exitX=1;exitY=0.25;exitDx=0;exitDy=0;entryX=0;entryY=0.25;entryDx=0;entryDy=0;" parent="1" source="-Z-DS7IXJV0FyssEUXty-19" target="-Z-DS7IXJV0FyssEUXty-26" edge="1">
          <mxGeometry relative="1" as="geometry" />
        </mxCell>
        <mxCell id="-Z-DS7IXJV0FyssEUXty-43" value="verify_credentials" style="edgeLabel;html=1;align=center;verticalAlign=middle;resizable=0;points=[];" parent="-Z-DS7IXJV0FyssEUXty-36" vertex="1" connectable="0">
          <mxGeometry x="-0.3469" y="11" relative="1" as="geometry">
            <mxPoint as="offset" />
          </mxGeometry>
        </mxCell>
        <mxCell id="-Z-DS7IXJV0FyssEUXty-39" style="edgeStyle=orthogonalEdgeStyle;rounded=0;orthogonalLoop=1;jettySize=auto;html=1;exitX=1;exitY=0.25;exitDx=0;exitDy=0;entryX=0.026;entryY=0.628;entryDx=0;entryDy=0;entryPerimeter=0;" parent="1" source="-Z-DS7IXJV0FyssEUXty-26" target="-Z-DS7IXJV0FyssEUXty-31" edge="1">
          <mxGeometry relative="1" as="geometry" />
        </mxCell>
        <mxCell id="-Z-DS7IXJV0FyssEUXty-47" value="credantials_not_found" style="edgeLabel;html=1;align=center;verticalAlign=middle;resizable=0;points=[];" parent="-Z-DS7IXJV0FyssEUXty-39" vertex="1" connectable="0">
          <mxGeometry x="0.0686" y="2" relative="1" as="geometry">
            <mxPoint as="offset" />
          </mxGeometry>
        </mxCell>
        <mxCell id="hUjVaZttQKEgmbLeLdVR-40" style="edgeStyle=orthogonalEdgeStyle;rounded=0;orthogonalLoop=1;jettySize=auto;html=1;exitX=1;exitY=1;exitDx=0;exitDy=0;entryX=0;entryY=0.25;entryDx=0;entryDy=0;" edge="1" parent="1" source="8inZqM1Nh-mBHfwORftA-1" target="hUjVaZttQKEgmbLeLdVR-33">
          <mxGeometry relative="1" as="geometry" />
        </mxCell>
        <mxCell id="hUjVaZttQKEgmbLeLdVR-41" value="car_data" style="edgeLabel;html=1;align=center;verticalAlign=middle;resizable=0;points=[];" vertex="1" connectable="0" parent="hUjVaZttQKEgmbLeLdVR-40">
          <mxGeometry x="0.1267" y="-2" relative="1" as="geometry">
            <mxPoint x="-1" as="offset" />
          </mxGeometry>
        </mxCell>
        <mxCell id="8inZqM1Nh-mBHfwORftA-1" value="Admin" style="rounded=0;whiteSpace=wrap;html=1;" parent="1" vertex="1">
          <mxGeometry x="480" y="-270" width="310" height="110" as="geometry" />
        </mxCell>
        <mxCell id="8inZqM1Nh-mBHfwORftA-4" value="2.9" style="swimlane;childLayout=stackLayout;horizontal=1;startSize=50;horizontalStack=0;rounded=1;fontSize=14;fontStyle=0;strokeWidth=2;resizeParent=0;resizeLast=1;shadow=0;dashed=0;align=center;arcSize=4;whiteSpace=wrap;html=1;" parent="1" vertex="1">
          <mxGeometry x="-540" y="350" width="160" height="120" as="geometry" />
        </mxCell>
        <mxCell id="8inZqM1Nh-mBHfwORftA-7" value="Check_Client_Status" style="text;html=1;align=center;verticalAlign=middle;resizable=0;points=[];autosize=1;strokeColor=none;fillColor=none;" parent="8inZqM1Nh-mBHfwORftA-4" vertex="1">
          <mxGeometry y="50" width="160" height="70" as="geometry" />
        </mxCell>
        <mxCell id="8inZqM1Nh-mBHfwORftA-8" value="2.10" style="swimlane;childLayout=stackLayout;horizontal=1;startSize=50;horizontalStack=0;rounded=1;fontSize=14;fontStyle=0;strokeWidth=2;resizeParent=0;resizeLast=1;shadow=0;dashed=0;align=center;arcSize=4;whiteSpace=wrap;html=1;" parent="1" vertex="1">
          <mxGeometry x="-950" y="360" width="160" height="130" as="geometry" />
        </mxCell>
        <mxCell id="8inZqM1Nh-mBHfwORftA-10" value="Make-Decision" style="text;html=1;align=center;verticalAlign=middle;resizable=0;points=[];autosize=1;strokeColor=none;fillColor=none;" parent="8inZqM1Nh-mBHfwORftA-8" vertex="1">
          <mxGeometry y="50" width="160" height="80" as="geometry" />
        </mxCell>
        <mxCell id="8inZqM1Nh-mBHfwORftA-17" value="2.11" style="swimlane;childLayout=stackLayout;horizontal=1;startSize=50;horizontalStack=0;rounded=1;fontSize=14;fontStyle=0;strokeWidth=2;resizeParent=0;resizeLast=1;shadow=0;dashed=0;align=center;arcSize=4;whiteSpace=wrap;html=1;" parent="1" vertex="1">
          <mxGeometry x="-1290" y="360" width="160" height="120" as="geometry" />
        </mxCell>
        <mxCell id="8inZqM1Nh-mBHfwORftA-19" value="Update_Request_Status" style="text;html=1;align=center;verticalAlign=middle;resizable=0;points=[];autosize=1;strokeColor=none;fillColor=none;" parent="8inZqM1Nh-mBHfwORftA-17" vertex="1">
          <mxGeometry y="50" width="160" height="70" as="geometry" />
        </mxCell>
        <mxCell id="yKhPgB3xR9wps0WLkA4A-14" style="edgeStyle=orthogonalEdgeStyle;rounded=0;orthogonalLoop=1;jettySize=auto;html=1;exitX=0;exitY=0.25;exitDx=0;exitDy=0;entryX=1;entryY=0.25;entryDx=0;entryDy=0;" parent="1" source="8inZqM1Nh-mBHfwORftA-2" target="8inZqM1Nh-mBHfwORftA-4" edge="1">
          <mxGeometry relative="1" as="geometry" />
        </mxCell>
        <mxCell id="hll2jXJH_OL2cmdzYWr9-3" value="client_num" style="edgeLabel;html=1;align=center;verticalAlign=middle;resizable=0;points=[];" parent="yKhPgB3xR9wps0WLkA4A-14" vertex="1" connectable="0">
          <mxGeometry x="-0.0933" y="-1" relative="1" as="geometry">
            <mxPoint x="-1" as="offset" />
          </mxGeometry>
        </mxCell>
        <mxCell id="hll2jXJH_OL2cmdzYWr9-31" style="edgeStyle=orthogonalEdgeStyle;rounded=0;orthogonalLoop=1;jettySize=auto;html=1;exitX=0;exitY=0;exitDx=0;exitDy=0;entryX=1;entryY=0;entryDx=0;entryDy=0;" parent="1" source="8inZqM1Nh-mBHfwORftA-2" target="hll2jXJH_OL2cmdzYWr9-25" edge="1">
          <mxGeometry relative="1" as="geometry" />
        </mxCell>
        <mxCell id="hll2jXJH_OL2cmdzYWr9-37" value="requests" style="edgeLabel;html=1;align=center;verticalAlign=middle;resizable=0;points=[];" parent="hll2jXJH_OL2cmdzYWr9-31" vertex="1" connectable="0">
          <mxGeometry x="0.149" y="-4" relative="1" as="geometry">
            <mxPoint as="offset" />
          </mxGeometry>
        </mxCell>
        <mxCell id="hll2jXJH_OL2cmdzYWr9-40" style="edgeStyle=orthogonalEdgeStyle;rounded=0;orthogonalLoop=1;jettySize=auto;html=1;exitX=0.75;exitY=0;exitDx=0;exitDy=0;entryX=0;entryY=1;entryDx=0;entryDy=0;" parent="1" source="8inZqM1Nh-mBHfwORftA-2" target="WPqpw8OH2dosxsMt212a-11" edge="1">
          <mxGeometry relative="1" as="geometry" />
        </mxCell>
        <mxCell id="hll2jXJH_OL2cmdzYWr9-41" value="client_request" style="edgeLabel;html=1;align=center;verticalAlign=middle;resizable=0;points=[];" parent="hll2jXJH_OL2cmdzYWr9-40" vertex="1" connectable="0">
          <mxGeometry x="-0.0546" y="6" relative="1" as="geometry">
            <mxPoint as="offset" />
          </mxGeometry>
        </mxCell>
        <mxCell id="8inZqM1Nh-mBHfwORftA-2" value="2.8" style="swimlane;childLayout=stackLayout;horizontal=1;startSize=50;horizontalStack=0;rounded=1;fontSize=14;fontStyle=0;strokeWidth=2;resizeParent=0;resizeLast=1;shadow=0;dashed=0;align=center;arcSize=4;whiteSpace=wrap;html=1;" parent="1" vertex="1">
          <mxGeometry x="-150" y="360" width="160" height="120" as="geometry" />
        </mxCell>
        <mxCell id="8inZqM1Nh-mBHfwORftA-6" value="Retrieve_Request" style="text;html=1;align=center;verticalAlign=middle;resizable=0;points=[];autosize=1;strokeColor=none;fillColor=none;" parent="8inZqM1Nh-mBHfwORftA-2" vertex="1">
          <mxGeometry y="50" width="160" height="70" as="geometry" />
        </mxCell>
        <mxCell id="yKhPgB3xR9wps0WLkA4A-13" style="edgeStyle=orthogonalEdgeStyle;rounded=0;orthogonalLoop=1;jettySize=auto;html=1;exitX=1;exitY=1;exitDx=0;exitDy=0;entryX=1.006;entryY=0.577;entryDx=0;entryDy=0;entryPerimeter=0;" parent="1" source="WPqpw8OH2dosxsMt212a-11" target="8inZqM1Nh-mBHfwORftA-6" edge="1">
          <mxGeometry relative="1" as="geometry" />
        </mxCell>
        <mxCell id="hll2jXJH_OL2cmdzYWr9-4" value="request_data" style="edgeLabel;html=1;align=center;verticalAlign=middle;resizable=0;points=[];" parent="yKhPgB3xR9wps0WLkA4A-13" vertex="1" connectable="0">
          <mxGeometry x="0.17" y="-1" relative="1" as="geometry">
            <mxPoint as="offset" />
          </mxGeometry>
        </mxCell>
        <mxCell id="yKhPgB3xR9wps0WLkA4A-15" style="edgeStyle=orthogonalEdgeStyle;rounded=0;orthogonalLoop=1;jettySize=auto;html=1;exitX=0.5;exitY=1;exitDx=0;exitDy=0;entryX=0.506;entryY=1.096;entryDx=0;entryDy=0;entryPerimeter=0;" parent="1" source="-Z-DS7IXJV0FyssEUXty-32" target="8inZqM1Nh-mBHfwORftA-7" edge="1">
          <mxGeometry relative="1" as="geometry">
            <Array as="points">
              <mxPoint x="410" y="-150" />
              <mxPoint x="410" y="560" />
              <mxPoint x="-459" y="560" />
            </Array>
          </mxGeometry>
        </mxCell>
        <mxCell id="hll2jXJH_OL2cmdzYWr9-2" value="client_status" style="edgeLabel;html=1;align=center;verticalAlign=middle;resizable=0;points=[];" parent="yKhPgB3xR9wps0WLkA4A-15" vertex="1" connectable="0">
          <mxGeometry x="0.3937" relative="1" as="geometry">
            <mxPoint as="offset" />
          </mxGeometry>
        </mxCell>
        <mxCell id="yKhPgB3xR9wps0WLkA4A-18" style="edgeStyle=orthogonalEdgeStyle;rounded=0;orthogonalLoop=1;jettySize=auto;html=1;entryX=1.025;entryY=0.29;entryDx=0;entryDy=0;entryPerimeter=0;" parent="1" source="8inZqM1Nh-mBHfwORftA-7" target="8inZqM1Nh-mBHfwORftA-10" edge="1">
          <mxGeometry relative="1" as="geometry" />
        </mxCell>
        <mxCell id="hll2jXJH_OL2cmdzYWr9-7" value="client_status &amp;amp; request_data" style="edgeLabel;html=1;align=center;verticalAlign=middle;resizable=0;points=[];" parent="yKhPgB3xR9wps0WLkA4A-18" vertex="1" connectable="0">
          <mxGeometry x="-0.0455" y="-4" relative="1" as="geometry">
            <mxPoint as="offset" />
          </mxGeometry>
        </mxCell>
        <mxCell id="yKhPgB3xR9wps0WLkA4A-19" style="edgeStyle=orthogonalEdgeStyle;rounded=0;orthogonalLoop=1;jettySize=auto;html=1;entryX=1.016;entryY=0.492;entryDx=0;entryDy=0;entryPerimeter=0;" parent="1" source="8inZqM1Nh-mBHfwORftA-10" target="8inZqM1Nh-mBHfwORftA-19" edge="1">
          <mxGeometry relative="1" as="geometry" />
        </mxCell>
        <mxCell id="hll2jXJH_OL2cmdzYWr9-6" value="final_decision" style="edgeLabel;html=1;align=center;verticalAlign=middle;resizable=0;points=[];" parent="yKhPgB3xR9wps0WLkA4A-19" vertex="1" connectable="0">
          <mxGeometry x="-0.1028" y="-5" relative="1" as="geometry">
            <mxPoint x="-1" as="offset" />
          </mxGeometry>
        </mxCell>
        <mxCell id="hll2jXJH_OL2cmdzYWr9-23" value="2.12" style="swimlane;childLayout=stackLayout;horizontal=1;startSize=40;horizontalStack=0;rounded=1;fontSize=14;fontStyle=0;strokeWidth=2;resizeParent=0;resizeLast=1;shadow=0;dashed=0;align=center;arcSize=4;whiteSpace=wrap;html=1;" parent="1" vertex="1">
          <mxGeometry x="-1850" y="360" width="160" height="120" as="geometry" />
        </mxCell>
        <mxCell id="hll2jXJH_OL2cmdzYWr9-27" value="Display_Result" style="text;html=1;align=center;verticalAlign=middle;resizable=0;points=[];autosize=1;strokeColor=none;fillColor=none;" parent="hll2jXJH_OL2cmdzYWr9-23" vertex="1">
          <mxGeometry y="40" width="160" height="80" as="geometry" />
        </mxCell>
        <mxCell id="hll2jXJH_OL2cmdzYWr9-25" value="2.13" style="swimlane;childLayout=stackLayout;horizontal=1;startSize=50;horizontalStack=0;rounded=1;fontSize=14;fontStyle=0;strokeWidth=2;resizeParent=0;resizeLast=1;shadow=0;dashed=0;align=center;arcSize=4;whiteSpace=wrap;html=1;" parent="1" vertex="1">
          <mxGeometry x="-1580" y="360" width="160" height="120" as="geometry" />
        </mxCell>
        <mxCell id="hll2jXJH_OL2cmdzYWr9-28" value="Filter_Recent_Request" style="text;html=1;align=center;verticalAlign=middle;resizable=0;points=[];autosize=1;strokeColor=none;fillColor=none;" parent="hll2jXJH_OL2cmdzYWr9-25" vertex="1">
          <mxGeometry y="50" width="160" height="70" as="geometry" />
        </mxCell>
        <mxCell id="hll2jXJH_OL2cmdzYWr9-33" style="edgeStyle=orthogonalEdgeStyle;rounded=0;orthogonalLoop=1;jettySize=auto;html=1;exitX=1;exitY=0;exitDx=0;exitDy=0;entryX=0.202;entryY=0.954;entryDx=0;entryDy=0;entryPerimeter=0;" parent="1" source="hll2jXJH_OL2cmdzYWr9-23" target="WPqpw8OH2dosxsMt212a-1" edge="1">
          <mxGeometry relative="1" as="geometry" />
        </mxCell>
        <mxCell id="hll2jXJH_OL2cmdzYWr9-36" value="request_result" style="edgeLabel;html=1;align=center;verticalAlign=middle;resizable=0;points=[];" parent="hll2jXJH_OL2cmdzYWr9-33" vertex="1" connectable="0">
          <mxGeometry x="-0.1832" y="7" relative="1" as="geometry">
            <mxPoint as="offset" />
          </mxGeometry>
        </mxCell>
        <mxCell id="hll2jXJH_OL2cmdzYWr9-34" style="edgeStyle=orthogonalEdgeStyle;rounded=0;orthogonalLoop=1;jettySize=auto;html=1;exitX=0;exitY=0.75;exitDx=0;exitDy=0;entryX=0.963;entryY=0.681;entryDx=0;entryDy=0;entryPerimeter=0;" parent="1" source="hll2jXJH_OL2cmdzYWr9-25" target="hll2jXJH_OL2cmdzYWr9-27" edge="1">
          <mxGeometry relative="1" as="geometry" />
        </mxCell>
        <mxCell id="hll2jXJH_OL2cmdzYWr9-35" value="last_request&amp;nbsp;" style="edgeLabel;html=1;align=center;verticalAlign=middle;resizable=0;points=[];" parent="hll2jXJH_OL2cmdzYWr9-34" vertex="1" connectable="0">
          <mxGeometry x="-0.0112" y="6" relative="1" as="geometry">
            <mxPoint x="4" y="-2" as="offset" />
          </mxGeometry>
        </mxCell>
        <mxCell id="hll2jXJH_OL2cmdzYWr9-44" value="2.15" style="swimlane;childLayout=stackLayout;horizontal=1;startSize=50;horizontalStack=0;rounded=1;fontSize=14;fontStyle=0;strokeWidth=2;resizeParent=0;resizeLast=1;shadow=0;dashed=0;align=center;arcSize=4;whiteSpace=wrap;html=1;" parent="1" vertex="1">
          <mxGeometry x="-1940" y="630" width="160" height="120" as="geometry" />
        </mxCell>
        <mxCell id="hll2jXJH_OL2cmdzYWr9-51" value="Validate_Return_Request" style="text;html=1;align=center;verticalAlign=middle;resizable=0;points=[];autosize=1;strokeColor=none;fillColor=none;" parent="hll2jXJH_OL2cmdzYWr9-44" vertex="1">
          <mxGeometry y="50" width="160" height="70" as="geometry" />
        </mxCell>
        <mxCell id="hll2jXJH_OL2cmdzYWr9-59" style="edgeStyle=orthogonalEdgeStyle;rounded=0;orthogonalLoop=1;jettySize=auto;html=1;exitX=1;exitY=0.75;exitDx=0;exitDy=0;entryX=0;entryY=0.5;entryDx=0;entryDy=0;" parent="1" source="hll2jXJH_OL2cmdzYWr9-46" target="hll2jXJH_OL2cmdzYWr9-58" edge="1">
          <mxGeometry relative="1" as="geometry" />
        </mxCell>
        <mxCell id="hll2jXJH_OL2cmdzYWr9-60" value="update_status" style="edgeLabel;html=1;align=center;verticalAlign=middle;resizable=0;points=[];" parent="hll2jXJH_OL2cmdzYWr9-59" vertex="1" connectable="0">
          <mxGeometry x="-0.2354" y="3" relative="1" as="geometry">
            <mxPoint as="offset" />
          </mxGeometry>
        </mxCell>
        <mxCell id="hll2jXJH_OL2cmdzYWr9-46" value="2.16" style="swimlane;childLayout=stackLayout;horizontal=1;startSize=50;horizontalStack=0;rounded=1;fontSize=14;fontStyle=0;strokeWidth=2;resizeParent=0;resizeLast=1;shadow=0;dashed=0;align=center;arcSize=4;whiteSpace=wrap;html=1;" parent="1" vertex="1">
          <mxGeometry x="-1590" y="630" width="160" height="120" as="geometry" />
        </mxCell>
        <mxCell id="hll2jXJH_OL2cmdzYWr9-52" value="Update_Client_History" style="text;html=1;align=center;verticalAlign=middle;resizable=0;points=[];autosize=1;strokeColor=none;fillColor=none;" parent="hll2jXJH_OL2cmdzYWr9-46" vertex="1">
          <mxGeometry y="50" width="160" height="70" as="geometry" />
        </mxCell>
        <mxCell id="hll2jXJH_OL2cmdzYWr9-68" style="edgeStyle=orthogonalEdgeStyle;rounded=0;orthogonalLoop=1;jettySize=auto;html=1;exitX=0.5;exitY=0;exitDx=0;exitDy=0;entryX=0;entryY=0;entryDx=0;entryDy=0;" parent="1" source="hll2jXJH_OL2cmdzYWr9-48" target="WPqpw8OH2dosxsMt212a-1" edge="1">
          <mxGeometry relative="1" as="geometry" />
        </mxCell>
        <mxCell id="hll2jXJH_OL2cmdzYWr9-69" value="confirm_return" style="edgeLabel;html=1;align=center;verticalAlign=middle;resizable=0;points=[];" parent="hll2jXJH_OL2cmdzYWr9-68" vertex="1" connectable="0">
          <mxGeometry x="0.4575" y="-8" relative="1" as="geometry">
            <mxPoint as="offset" />
          </mxGeometry>
        </mxCell>
        <mxCell id="hll2jXJH_OL2cmdzYWr9-89" style="edgeStyle=orthogonalEdgeStyle;rounded=0;orthogonalLoop=1;jettySize=auto;html=1;exitX=0;exitY=0;exitDx=0;exitDy=0;entryX=0;entryY=0;entryDx=0;entryDy=0;" parent="1" source="hll2jXJH_OL2cmdzYWr9-48" target="-Z-DS7IXJV0FyssEUXty-32" edge="1">
          <mxGeometry relative="1" as="geometry" />
        </mxCell>
        <mxCell id="hll2jXJH_OL2cmdzYWr9-90" value="update_client_record" style="edgeLabel;html=1;align=center;verticalAlign=middle;resizable=0;points=[];" parent="hll2jXJH_OL2cmdzYWr9-89" vertex="1" connectable="0">
          <mxGeometry x="-0.02" y="-8" relative="1" as="geometry">
            <mxPoint x="-1" as="offset" />
          </mxGeometry>
        </mxCell>
        <mxCell id="hll2jXJH_OL2cmdzYWr9-48" value="2.14" style="swimlane;childLayout=stackLayout;horizontal=1;startSize=50;horizontalStack=0;rounded=1;fontSize=14;fontStyle=0;strokeWidth=2;resizeParent=0;resizeLast=1;shadow=0;dashed=0;align=center;arcSize=4;whiteSpace=wrap;html=1;" parent="1" vertex="1">
          <mxGeometry x="-2240" y="630" width="160" height="120" as="geometry" />
        </mxCell>
        <mxCell id="hll2jXJH_OL2cmdzYWr9-50" value="Update_client_history" style="text;html=1;align=center;verticalAlign=middle;resizable=0;points=[];autosize=1;strokeColor=none;fillColor=none;" parent="hll2jXJH_OL2cmdzYWr9-48" vertex="1">
          <mxGeometry y="50" width="160" height="70" as="geometry" />
        </mxCell>
        <mxCell id="hll2jXJH_OL2cmdzYWr9-54" style="edgeStyle=orthogonalEdgeStyle;rounded=0;orthogonalLoop=1;jettySize=auto;html=1;exitX=0;exitY=0.5;exitDx=0;exitDy=0;entryX=0.328;entryY=0.064;entryDx=0;entryDy=0;entryPerimeter=0;" parent="1" source="WPqpw8OH2dosxsMt212a-1" target="hll2jXJH_OL2cmdzYWr9-44" edge="1">
          <mxGeometry relative="1" as="geometry" />
        </mxCell>
        <mxCell id="hll2jXJH_OL2cmdzYWr9-55" value="return_data" style="edgeLabel;html=1;align=center;verticalAlign=middle;resizable=0;points=[];" parent="hll2jXJH_OL2cmdzYWr9-54" vertex="1" connectable="0">
          <mxGeometry x="-0.0834" y="6" relative="1" as="geometry">
            <mxPoint as="offset" />
          </mxGeometry>
        </mxCell>
        <mxCell id="hll2jXJH_OL2cmdzYWr9-56" style="edgeStyle=orthogonalEdgeStyle;rounded=0;orthogonalLoop=1;jettySize=auto;html=1;exitX=1;exitY=0.5;exitDx=0;exitDy=0;entryX=-0.036;entryY=0.267;entryDx=0;entryDy=0;entryPerimeter=0;" parent="1" source="hll2jXJH_OL2cmdzYWr9-44" target="hll2jXJH_OL2cmdzYWr9-52" edge="1">
          <mxGeometry relative="1" as="geometry" />
        </mxCell>
        <mxCell id="hll2jXJH_OL2cmdzYWr9-57" value="car_num" style="edgeLabel;html=1;align=center;verticalAlign=middle;resizable=0;points=[];" parent="hll2jXJH_OL2cmdzYWr9-56" vertex="1" connectable="0">
          <mxGeometry x="-0.2236" relative="1" as="geometry">
            <mxPoint as="offset" />
          </mxGeometry>
        </mxCell>
        <mxCell id="hUjVaZttQKEgmbLeLdVR-57" style="edgeStyle=orthogonalEdgeStyle;rounded=0;orthogonalLoop=1;jettySize=auto;html=1;exitX=0.5;exitY=1;exitDx=0;exitDy=0;entryX=1;entryY=0.25;entryDx=0;entryDy=0;" edge="1" parent="1" source="hll2jXJH_OL2cmdzYWr9-58" target="hUjVaZttQKEgmbLeLdVR-50">
          <mxGeometry relative="1" as="geometry">
            <Array as="points">
              <mxPoint x="-315" y="900" />
              <mxPoint x="-1590" y="900" />
            </Array>
          </mxGeometry>
        </mxCell>
        <mxCell id="hUjVaZttQKEgmbLeLdVR-60" value="car_data" style="edgeLabel;html=1;align=center;verticalAlign=middle;resizable=0;points=[];" vertex="1" connectable="0" parent="hUjVaZttQKEgmbLeLdVR-57">
          <mxGeometry x="0.1591" y="5" relative="1" as="geometry">
            <mxPoint as="offset" />
          </mxGeometry>
        </mxCell>
        <mxCell id="hll2jXJH_OL2cmdzYWr9-58" value="&amp;nbsp; &amp;nbsp; &amp;nbsp; &amp;nbsp; &amp;nbsp; &amp;nbsp; &amp;nbsp; &amp;nbsp; &amp;nbsp; &amp;nbsp; &amp;nbsp; &amp;nbsp; &amp;nbsp; &amp;nbsp; &amp;nbsp; &amp;nbsp;Cars" style="html=1;dashed=0;whiteSpace=wrap;shape=mxgraph.dfd.dataStoreID;align=left;spacingLeft=3;points=[[0,0],[0.5,0],[1,0],[0,0.5],[1,0.5],[0,1],[0.5,1],[1,1]];" parent="1" vertex="1">
          <mxGeometry x="-425" y="680" width="220" height="120" as="geometry" />
        </mxCell>
        <mxCell id="hll2jXJH_OL2cmdzYWr9-62" style="edgeStyle=orthogonalEdgeStyle;rounded=0;orthogonalLoop=1;jettySize=auto;html=1;exitX=0;exitY=0.5;exitDx=0;exitDy=0;entryX=0.945;entryY=0.153;entryDx=0;entryDy=0;entryPerimeter=0;" parent="1" source="hll2jXJH_OL2cmdzYWr9-44" target="hll2jXJH_OL2cmdzYWr9-50" edge="1">
          <mxGeometry relative="1" as="geometry" />
        </mxCell>
        <mxCell id="hll2jXJH_OL2cmdzYWr9-63" value="return_data" style="edgeLabel;html=1;align=center;verticalAlign=middle;resizable=0;points=[];" parent="hll2jXJH_OL2cmdzYWr9-62" vertex="1" connectable="0">
          <mxGeometry x="-0.0559" y="2" relative="1" as="geometry">
            <mxPoint x="2" as="offset" />
          </mxGeometry>
        </mxCell>
        <mxCell id="hll2jXJH_OL2cmdzYWr9-78" style="edgeStyle=orthogonalEdgeStyle;rounded=0;orthogonalLoop=1;jettySize=auto;html=1;exitX=1;exitY=0.75;exitDx=0;exitDy=0;entryX=0.406;entryY=1.004;entryDx=0;entryDy=0;entryPerimeter=0;" parent="1" source="-Z-DS7IXJV0FyssEUXty-29" target="-Z-DS7IXJV0FyssEUXty-32" edge="1">
          <mxGeometry relative="1" as="geometry" />
        </mxCell>
        <mxCell id="hll2jXJH_OL2cmdzYWr9-79" value="save_user_data" style="edgeLabel;html=1;align=center;verticalAlign=middle;resizable=0;points=[];" parent="hll2jXJH_OL2cmdzYWr9-78" vertex="1" connectable="0">
          <mxGeometry x="-0.3933" y="6" relative="1" as="geometry">
            <mxPoint as="offset" />
          </mxGeometry>
        </mxCell>
        <mxCell id="hll2jXJH_OL2cmdzYWr9-80" style="edgeStyle=orthogonalEdgeStyle;rounded=0;orthogonalLoop=1;jettySize=auto;html=1;exitX=1;exitY=0;exitDx=0;exitDy=0;entryX=0.027;entryY=1.017;entryDx=0;entryDy=0;entryPerimeter=0;" parent="1" source="-Z-DS7IXJV0FyssEUXty-19" target="-Z-DS7IXJV0FyssEUXty-32" edge="1">
          <mxGeometry relative="1" as="geometry" />
        </mxCell>
        <mxCell id="hll2jXJH_OL2cmdzYWr9-81" value="retrieve_user_data" style="edgeLabel;html=1;align=center;verticalAlign=middle;resizable=0;points=[];" parent="hll2jXJH_OL2cmdzYWr9-80" vertex="1" connectable="0">
          <mxGeometry x="-0.024" y="1" relative="1" as="geometry">
            <mxPoint x="1" as="offset" />
          </mxGeometry>
        </mxCell>
        <mxCell id="hll2jXJH_OL2cmdzYWr9-92" value="&amp;nbsp; &amp;nbsp; &amp;nbsp; &amp;nbsp; &amp;nbsp; &amp;nbsp; &amp;nbsp; &amp;nbsp; &amp;nbsp; &amp;nbsp; &amp;nbsp; &amp;nbsp; &amp;nbsp; &amp;nbsp; &amp;nbsp;Massages" style="html=1;dashed=0;whiteSpace=wrap;shape=mxgraph.dfd.dataStoreID;align=left;spacingLeft=3;points=[[0,0],[0.5,0],[1,0],[0,0.5],[1,0.5],[0,1],[0.5,1],[1,1]];" parent="1" vertex="1">
          <mxGeometry x="480" y="-860" width="230" height="130" as="geometry" />
        </mxCell>
        <mxCell id="hll2jXJH_OL2cmdzYWr9-109" style="edgeStyle=orthogonalEdgeStyle;rounded=0;orthogonalLoop=1;jettySize=auto;html=1;exitX=0;exitY=0.5;exitDx=0;exitDy=0;entryX=1;entryY=0.5;entryDx=0;entryDy=0;" parent="1" source="hll2jXJH_OL2cmdzYWr9-95" target="hll2jXJH_OL2cmdzYWr9-101" edge="1">
          <mxGeometry relative="1" as="geometry" />
        </mxCell>
        <mxCell id="hll2jXJH_OL2cmdzYWr9-110" value="valid_massage" style="edgeLabel;html=1;align=center;verticalAlign=middle;resizable=0;points=[];" parent="hll2jXJH_OL2cmdzYWr9-109" vertex="1" connectable="0">
          <mxGeometry x="-0.123" relative="1" as="geometry">
            <mxPoint as="offset" />
          </mxGeometry>
        </mxCell>
        <mxCell id="hll2jXJH_OL2cmdzYWr9-95" value="2.17" style="swimlane;childLayout=stackLayout;horizontal=1;startSize=50;horizontalStack=0;rounded=1;fontSize=14;fontStyle=0;strokeWidth=2;resizeParent=0;resizeLast=1;shadow=0;dashed=0;align=center;arcSize=4;whiteSpace=wrap;html=1;" parent="1" vertex="1">
          <mxGeometry x="-1890" y="-70" width="160" height="120" as="geometry" />
        </mxCell>
        <mxCell id="hll2jXJH_OL2cmdzYWr9-104" style="edgeStyle=orthogonalEdgeStyle;rounded=0;orthogonalLoop=1;jettySize=auto;html=1;exitX=0.5;exitY=0;exitDx=0;exitDy=0;entryX=0.5;entryY=0;entryDx=0;entryDy=0;" parent="1" source="hll2jXJH_OL2cmdzYWr9-101" target="hll2jXJH_OL2cmdzYWr9-92" edge="1">
          <mxGeometry relative="1" as="geometry" />
        </mxCell>
        <mxCell id="hll2jXJH_OL2cmdzYWr9-111" value="store_massage" style="edgeLabel;html=1;align=center;verticalAlign=middle;resizable=0;points=[];" parent="hll2jXJH_OL2cmdzYWr9-104" vertex="1" connectable="0">
          <mxGeometry x="-0.2062" y="-8" relative="1" as="geometry">
            <mxPoint as="offset" />
          </mxGeometry>
        </mxCell>
        <mxCell id="hll2jXJH_OL2cmdzYWr9-112" style="edgeStyle=orthogonalEdgeStyle;rounded=0;orthogonalLoop=1;jettySize=auto;html=1;exitX=1;exitY=0.25;exitDx=0;exitDy=0;entryX=0;entryY=0.25;entryDx=0;entryDy=0;" parent="1" source="hll2jXJH_OL2cmdzYWr9-101" target="hll2jXJH_OL2cmdzYWr9-95" edge="1">
          <mxGeometry relative="1" as="geometry" />
        </mxCell>
        <mxCell id="hll2jXJH_OL2cmdzYWr9-113" value="sent_successfully" style="edgeLabel;html=1;align=center;verticalAlign=middle;resizable=0;points=[];" parent="hll2jXJH_OL2cmdzYWr9-112" vertex="1" connectable="0">
          <mxGeometry x="-0.7633" y="7" relative="1" as="geometry">
            <mxPoint as="offset" />
          </mxGeometry>
        </mxCell>
        <mxCell id="hll2jXJH_OL2cmdzYWr9-101" value="2.18" style="swimlane;childLayout=stackLayout;horizontal=1;startSize=50;horizontalStack=0;rounded=1;fontSize=14;fontStyle=0;strokeWidth=2;resizeParent=0;resizeLast=1;shadow=0;dashed=0;align=center;arcSize=4;whiteSpace=wrap;html=1;" parent="1" vertex="1">
          <mxGeometry x="-2530" y="-80" width="160" height="120" as="geometry" />
        </mxCell>
        <mxCell id="hll2jXJH_OL2cmdzYWr9-105" value="Validate_massage" style="text;html=1;align=center;verticalAlign=middle;resizable=0;points=[];autosize=1;strokeColor=none;fillColor=none;" parent="1" vertex="1">
          <mxGeometry x="-1870" y="8" width="120" height="30" as="geometry" />
        </mxCell>
        <mxCell id="hll2jXJH_OL2cmdzYWr9-108" value="Save_massage" style="text;html=1;align=center;verticalAlign=middle;resizable=0;points=[];autosize=1;strokeColor=none;fillColor=none;" parent="1" vertex="1">
          <mxGeometry x="-2515" y="-12" width="110" height="30" as="geometry" />
        </mxCell>
        <mxCell id="iVvtX9Q-76EYv63cuxIj-40" style="edgeStyle=orthogonalEdgeStyle;rounded=0;orthogonalLoop=1;jettySize=auto;html=1;exitX=0;exitY=0.5;exitDx=0;exitDy=0;entryX=1;entryY=0.5;entryDx=0;entryDy=0;" parent="1" source="iVvtX9Q-76EYv63cuxIj-1" target="hll2jXJH_OL2cmdzYWr9-92" edge="1">
          <mxGeometry relative="1" as="geometry" />
        </mxCell>
        <mxCell id="iVvtX9Q-76EYv63cuxIj-42" value="read_massages" style="edgeLabel;html=1;align=center;verticalAlign=middle;resizable=0;points=[];" parent="iVvtX9Q-76EYv63cuxIj-40" vertex="1" connectable="0">
          <mxGeometry x="-0.178" relative="1" as="geometry">
            <mxPoint as="offset" />
          </mxGeometry>
        </mxCell>
        <mxCell id="iVvtX9Q-76EYv63cuxIj-47" style="edgeStyle=orthogonalEdgeStyle;rounded=0;orthogonalLoop=1;jettySize=auto;html=1;exitX=1;exitY=0.25;exitDx=0;exitDy=0;entryX=0;entryY=0.25;entryDx=0;entryDy=0;" parent="1" source="iVvtX9Q-76EYv63cuxIj-1" target="iVvtX9Q-76EYv63cuxIj-20" edge="1">
          <mxGeometry relative="1" as="geometry" />
        </mxCell>
        <mxCell id="iVvtX9Q-76EYv63cuxIj-49" value="new_massages" style="edgeLabel;html=1;align=center;verticalAlign=middle;resizable=0;points=[];" parent="iVvtX9Q-76EYv63cuxIj-47" vertex="1" connectable="0">
          <mxGeometry x="-0.0839" y="-1" relative="1" as="geometry">
            <mxPoint as="offset" />
          </mxGeometry>
        </mxCell>
        <mxCell id="iVvtX9Q-76EYv63cuxIj-1" value="2.19" style="swimlane;childLayout=stackLayout;horizontal=1;startSize=50;horizontalStack=0;rounded=1;fontSize=14;fontStyle=0;strokeWidth=2;resizeParent=0;resizeLast=1;shadow=0;dashed=0;align=center;arcSize=4;whiteSpace=wrap;html=1;" parent="1" vertex="1">
          <mxGeometry x="850" y="-850" width="160" height="120" as="geometry" />
        </mxCell>
        <mxCell id="iVvtX9Q-76EYv63cuxIj-4" value="Retrieve_Massages" style="text;html=1;align=center;verticalAlign=middle;resizable=0;points=[];autosize=1;strokeColor=none;fillColor=none;" parent="iVvtX9Q-76EYv63cuxIj-1" vertex="1">
          <mxGeometry y="50" width="160" height="70" as="geometry" />
        </mxCell>
        <mxCell id="iVvtX9Q-76EYv63cuxIj-31" style="edgeStyle=orthogonalEdgeStyle;rounded=0;orthogonalLoop=1;jettySize=auto;html=1;exitX=1;exitY=0.5;exitDx=0;exitDy=0;entryX=0;entryY=0.25;entryDx=0;entryDy=0;" parent="1" source="iVvtX9Q-76EYv63cuxIj-20" target="iVvtX9Q-76EYv63cuxIj-28" edge="1">
          <mxGeometry relative="1" as="geometry" />
        </mxCell>
        <mxCell id="iVvtX9Q-76EYv63cuxIj-33" value="massages_ready_to display" style="edgeLabel;html=1;align=center;verticalAlign=middle;resizable=0;points=[];" parent="iVvtX9Q-76EYv63cuxIj-31" vertex="1" connectable="0">
          <mxGeometry x="0.0521" y="-2" relative="1" as="geometry">
            <mxPoint as="offset" />
          </mxGeometry>
        </mxCell>
        <mxCell id="iVvtX9Q-76EYv63cuxIj-50" style="edgeStyle=orthogonalEdgeStyle;rounded=0;orthogonalLoop=1;jettySize=auto;html=1;exitX=0.25;exitY=0;exitDx=0;exitDy=0;entryX=1;entryY=0;entryDx=0;entryDy=0;" parent="1" source="iVvtX9Q-76EYv63cuxIj-20" target="hll2jXJH_OL2cmdzYWr9-92" edge="1">
          <mxGeometry relative="1" as="geometry" />
        </mxCell>
        <mxCell id="iVvtX9Q-76EYv63cuxIj-51" value="update_status" style="edgeLabel;html=1;align=center;verticalAlign=middle;resizable=0;points=[];" parent="iVvtX9Q-76EYv63cuxIj-50" vertex="1" connectable="0">
          <mxGeometry x="0.1013" y="-1" relative="1" as="geometry">
            <mxPoint as="offset" />
          </mxGeometry>
        </mxCell>
        <mxCell id="hUjVaZttQKEgmbLeLdVR-7" style="edgeStyle=orthogonalEdgeStyle;rounded=0;orthogonalLoop=1;jettySize=auto;html=1;exitX=0.25;exitY=1;exitDx=0;exitDy=0;entryX=1;entryY=0.25;entryDx=0;entryDy=0;" edge="1" parent="1" source="iVvtX9Q-76EYv63cuxIj-20" target="8inZqM1Nh-mBHfwORftA-1">
          <mxGeometry relative="1" as="geometry">
            <mxPoint x="880" y="-195.00000000000023" as="targetPoint" />
          </mxGeometry>
        </mxCell>
        <mxCell id="hUjVaZttQKEgmbLeLdVR-8" value="view_massage" style="edgeLabel;html=1;align=center;verticalAlign=middle;resizable=0;points=[];" vertex="1" connectable="0" parent="hUjVaZttQKEgmbLeLdVR-7">
          <mxGeometry x="0.3871" y="-1" relative="1" as="geometry">
            <mxPoint x="1" as="offset" />
          </mxGeometry>
        </mxCell>
        <mxCell id="iVvtX9Q-76EYv63cuxIj-20" value="2.20" style="swimlane;childLayout=stackLayout;horizontal=1;startSize=50;horizontalStack=0;rounded=1;fontSize=14;fontStyle=0;strokeWidth=2;resizeParent=0;resizeLast=1;shadow=0;dashed=0;align=center;arcSize=4;whiteSpace=wrap;html=1;" parent="1" vertex="1">
          <mxGeometry x="1180" y="-840" width="160" height="120" as="geometry" />
        </mxCell>
        <mxCell id="iVvtX9Q-76EYv63cuxIj-22" value="Mark_As_Read" style="text;html=1;align=center;verticalAlign=middle;resizable=0;points=[];autosize=1;strokeColor=none;fillColor=none;" parent="iVvtX9Q-76EYv63cuxIj-20" vertex="1">
          <mxGeometry y="50" width="160" height="70" as="geometry" />
        </mxCell>
        <mxCell id="iVvtX9Q-76EYv63cuxIj-28" value="2.21" style="swimlane;childLayout=stackLayout;horizontal=1;startSize=50;horizontalStack=0;rounded=1;fontSize=14;fontStyle=0;strokeWidth=2;resizeParent=0;resizeLast=1;shadow=0;dashed=0;align=center;arcSize=4;whiteSpace=wrap;html=1;" parent="1" vertex="1">
          <mxGeometry x="1490" y="-840" width="160" height="120" as="geometry" />
        </mxCell>
        <mxCell id="iVvtX9Q-76EYv63cuxIj-30" value="Display_Massages" style="text;html=1;align=center;verticalAlign=middle;resizable=0;points=[];autosize=1;strokeColor=none;fillColor=none;" parent="iVvtX9Q-76EYv63cuxIj-28" vertex="1">
          <mxGeometry y="50" width="160" height="70" as="geometry" />
        </mxCell>
        <mxCell id="iVvtX9Q-76EYv63cuxIj-44" style="edgeStyle=orthogonalEdgeStyle;rounded=0;orthogonalLoop=1;jettySize=auto;html=1;exitX=1;exitY=1;exitDx=0;exitDy=0;entryX=0.05;entryY=0.716;entryDx=0;entryDy=0;entryPerimeter=0;" parent="1" source="hll2jXJH_OL2cmdzYWr9-92" target="iVvtX9Q-76EYv63cuxIj-4" edge="1">
          <mxGeometry relative="1" as="geometry" />
        </mxCell>
        <mxCell id="iVvtX9Q-76EYv63cuxIj-45" value="unread_massages" style="edgeLabel;html=1;align=center;verticalAlign=middle;resizable=0;points=[];" parent="iVvtX9Q-76EYv63cuxIj-44" vertex="1" connectable="0">
          <mxGeometry x="-0.0015" y="2" relative="1" as="geometry">
            <mxPoint as="offset" />
          </mxGeometry>
        </mxCell>
        <mxCell id="iVvtX9Q-76EYv63cuxIj-64" style="edgeStyle=orthogonalEdgeStyle;rounded=0;orthogonalLoop=1;jettySize=auto;html=1;exitX=0.5;exitY=1;exitDx=0;exitDy=0;entryX=0.999;entryY=1.079;entryDx=0;entryDy=0;entryPerimeter=0;" parent="1" source="8inZqM1Nh-mBHfwORftA-1" target="8inZqM1Nh-mBHfwORftA-10" edge="1">
          <mxGeometry relative="1" as="geometry">
            <Array as="points">
              <mxPoint x="705" y="610" />
              <mxPoint x="-790" y="610" />
            </Array>
          </mxGeometry>
        </mxCell>
        <mxCell id="hUjVaZttQKEgmbLeLdVR-1" value="2.22" style="swimlane;childLayout=stackLayout;horizontal=1;startSize=50;horizontalStack=0;rounded=1;fontSize=14;fontStyle=0;strokeWidth=2;resizeParent=0;resizeLast=1;shadow=0;dashed=0;align=center;arcSize=4;whiteSpace=wrap;html=1;" vertex="1" parent="1">
          <mxGeometry x="380" y="-505" width="160" height="120" as="geometry" />
        </mxCell>
        <mxCell id="hUjVaZttQKEgmbLeLdVR-12" value="Fetch_Client" style="text;html=1;align=center;verticalAlign=middle;resizable=0;points=[];autosize=1;strokeColor=none;fillColor=none;" vertex="1" parent="hUjVaZttQKEgmbLeLdVR-1">
          <mxGeometry y="50" width="160" height="70" as="geometry" />
        </mxCell>
        <mxCell id="hUjVaZttQKEgmbLeLdVR-5" style="edgeStyle=orthogonalEdgeStyle;rounded=0;orthogonalLoop=1;jettySize=auto;html=1;exitX=1;exitY=0;exitDx=0;exitDy=0;entryX=0.402;entryY=1.105;entryDx=0;entryDy=0;entryPerimeter=0;" edge="1" parent="1" source="8inZqM1Nh-mBHfwORftA-1" target="iVvtX9Q-76EYv63cuxIj-4">
          <mxGeometry relative="1" as="geometry" />
        </mxCell>
        <mxCell id="hUjVaZttQKEgmbLeLdVR-6" value="request_to view_massages" style="edgeLabel;html=1;align=center;verticalAlign=middle;resizable=0;points=[];" vertex="1" connectable="0" parent="hUjVaZttQKEgmbLeLdVR-5">
          <mxGeometry x="-0.0663" y="-4" relative="1" as="geometry">
            <mxPoint x="1" as="offset" />
          </mxGeometry>
        </mxCell>
        <mxCell id="hUjVaZttQKEgmbLeLdVR-10" style="edgeStyle=orthogonalEdgeStyle;rounded=0;orthogonalLoop=1;jettySize=auto;html=1;exitX=0.25;exitY=0;exitDx=0;exitDy=0;entryX=0.918;entryY=1.105;entryDx=0;entryDy=0;entryPerimeter=0;" edge="1" parent="1" source="8inZqM1Nh-mBHfwORftA-1">
          <mxGeometry relative="1" as="geometry">
            <mxPoint x="526.8800000000001" y="-377.6500000000001" as="targetPoint" />
          </mxGeometry>
        </mxCell>
        <mxCell id="hUjVaZttQKEgmbLeLdVR-11" value="client_num" style="edgeLabel;html=1;align=center;verticalAlign=middle;resizable=0;points=[];" vertex="1" connectable="0" parent="hUjVaZttQKEgmbLeLdVR-10">
          <mxGeometry x="-0.0261" y="2" relative="1" as="geometry">
            <mxPoint as="offset" />
          </mxGeometry>
        </mxCell>
        <mxCell id="hUjVaZttQKEgmbLeLdVR-14" style="edgeStyle=orthogonalEdgeStyle;rounded=0;orthogonalLoop=1;jettySize=auto;html=1;exitX=0;exitY=0.75;exitDx=0;exitDy=0;entryX=0.998;entryY=0.93;entryDx=0;entryDy=0;entryPerimeter=0;" edge="1" parent="1" source="hUjVaZttQKEgmbLeLdVR-1" target="-Z-DS7IXJV0FyssEUXty-32">
          <mxGeometry relative="1" as="geometry" />
        </mxCell>
        <mxCell id="hUjVaZttQKEgmbLeLdVR-15" value="pull_data" style="edgeLabel;html=1;align=center;verticalAlign=middle;resizable=0;points=[];" vertex="1" connectable="0" parent="hUjVaZttQKEgmbLeLdVR-14">
          <mxGeometry x="-0.0125" y="1" relative="1" as="geometry">
            <mxPoint as="offset" />
          </mxGeometry>
        </mxCell>
        <mxCell id="hUjVaZttQKEgmbLeLdVR-18" style="edgeStyle=orthogonalEdgeStyle;rounded=0;orthogonalLoop=1;jettySize=auto;html=1;exitX=0.5;exitY=0;exitDx=0;exitDy=0;entryX=0.631;entryY=1.045;entryDx=0;entryDy=0;entryPerimeter=0;" edge="1" parent="1" source="hUjVaZttQKEgmbLeLdVR-1">
          <mxGeometry relative="1" as="geometry">
            <mxPoint x="460.96000000000004" y="-556.8499999999999" as="targetPoint" />
          </mxGeometry>
        </mxCell>
        <mxCell id="hUjVaZttQKEgmbLeLdVR-19" value="current_data" style="edgeLabel;html=1;align=center;verticalAlign=middle;resizable=0;points=[];" vertex="1" connectable="0" parent="hUjVaZttQKEgmbLeLdVR-18">
          <mxGeometry x="0.1321" relative="1" as="geometry">
            <mxPoint as="offset" />
          </mxGeometry>
        </mxCell>
        <mxCell id="hUjVaZttQKEgmbLeLdVR-26" style="edgeStyle=orthogonalEdgeStyle;rounded=0;orthogonalLoop=1;jettySize=auto;html=1;exitX=0;exitY=1;exitDx=0;exitDy=0;entryX=1;entryY=0;entryDx=0;entryDy=0;" edge="1" parent="1" source="hUjVaZttQKEgmbLeLdVR-23" target="-Z-DS7IXJV0FyssEUXty-32">
          <mxGeometry relative="1" as="geometry" />
        </mxCell>
        <mxCell id="hUjVaZttQKEgmbLeLdVR-27" value="update" style="edgeLabel;html=1;align=center;verticalAlign=middle;resizable=0;points=[];" vertex="1" connectable="0" parent="hUjVaZttQKEgmbLeLdVR-26">
          <mxGeometry x="0.0517" y="-6" relative="1" as="geometry">
            <mxPoint as="offset" />
          </mxGeometry>
        </mxCell>
        <mxCell id="hUjVaZttQKEgmbLeLdVR-29" style="edgeStyle=orthogonalEdgeStyle;rounded=0;orthogonalLoop=1;jettySize=auto;html=1;exitX=1;exitY=1;exitDx=0;exitDy=0;entryX=0.75;entryY=0;entryDx=0;entryDy=0;" edge="1" parent="1" source="hUjVaZttQKEgmbLeLdVR-23" target="8inZqM1Nh-mBHfwORftA-1">
          <mxGeometry relative="1" as="geometry" />
        </mxCell>
        <mxCell id="hUjVaZttQKEgmbLeLdVR-30" value="confirm_update" style="edgeLabel;html=1;align=center;verticalAlign=middle;resizable=0;points=[];" vertex="1" connectable="0" parent="hUjVaZttQKEgmbLeLdVR-29">
          <mxGeometry x="-0.0294" y="5" relative="1" as="geometry">
            <mxPoint as="offset" />
          </mxGeometry>
        </mxCell>
        <mxCell id="hUjVaZttQKEgmbLeLdVR-23" value="2.23" style="swimlane;childLayout=stackLayout;horizontal=1;startSize=50;horizontalStack=0;rounded=1;fontSize=14;fontStyle=0;strokeWidth=2;resizeParent=0;resizeLast=1;shadow=0;dashed=0;align=center;arcSize=4;whiteSpace=wrap;html=1;" vertex="1" parent="1">
          <mxGeometry x="390" y="-670" width="160" height="120" as="geometry" />
        </mxCell>
        <mxCell id="hUjVaZttQKEgmbLeLdVR-25" value="Update_status" style="text;html=1;align=center;verticalAlign=middle;resizable=0;points=[];autosize=1;strokeColor=none;fillColor=none;" vertex="1" parent="1">
          <mxGeometry x="410" y="-602" width="100" height="30" as="geometry" />
        </mxCell>
        <mxCell id="hUjVaZttQKEgmbLeLdVR-42" style="edgeStyle=orthogonalEdgeStyle;rounded=0;orthogonalLoop=1;jettySize=auto;html=1;exitX=1;exitY=0.25;exitDx=0;exitDy=0;entryX=0;entryY=0.25;entryDx=0;entryDy=0;" edge="1" parent="1" source="hUjVaZttQKEgmbLeLdVR-33" target="hUjVaZttQKEgmbLeLdVR-35">
          <mxGeometry relative="1" as="geometry" />
        </mxCell>
        <mxCell id="hUjVaZttQKEgmbLeLdVR-43" value="valid_data" style="edgeLabel;html=1;align=center;verticalAlign=middle;resizable=0;points=[];" vertex="1" connectable="0" parent="hUjVaZttQKEgmbLeLdVR-42">
          <mxGeometry x="-0.0821" relative="1" as="geometry">
            <mxPoint x="1" as="offset" />
          </mxGeometry>
        </mxCell>
        <mxCell id="hUjVaZttQKEgmbLeLdVR-33" value="2.24" style="swimlane;childLayout=stackLayout;horizontal=1;startSize=50;horizontalStack=0;rounded=1;fontSize=14;fontStyle=0;strokeWidth=2;resizeParent=0;resizeLast=1;shadow=0;dashed=0;align=center;arcSize=4;whiteSpace=wrap;html=1;" vertex="1" parent="1">
          <mxGeometry x="940" y="-140" width="160" height="120" as="geometry" />
        </mxCell>
        <mxCell id="hUjVaZttQKEgmbLeLdVR-38" value="Validate_Car_Data" style="text;html=1;align=center;verticalAlign=middle;resizable=0;points=[];autosize=1;strokeColor=none;fillColor=none;" vertex="1" parent="hUjVaZttQKEgmbLeLdVR-33">
          <mxGeometry y="50" width="160" height="70" as="geometry" />
        </mxCell>
        <mxCell id="hUjVaZttQKEgmbLeLdVR-44" style="edgeStyle=orthogonalEdgeStyle;rounded=0;orthogonalLoop=1;jettySize=auto;html=1;exitX=0.75;exitY=1;exitDx=0;exitDy=0;entryX=1;entryY=0.5;entryDx=0;entryDy=0;" edge="1" parent="1" source="hUjVaZttQKEgmbLeLdVR-35" target="hll2jXJH_OL2cmdzYWr9-58">
          <mxGeometry relative="1" as="geometry" />
        </mxCell>
        <mxCell id="hUjVaZttQKEgmbLeLdVR-45" value="store" style="edgeLabel;html=1;align=center;verticalAlign=middle;resizable=0;points=[];" vertex="1" connectable="0" parent="hUjVaZttQKEgmbLeLdVR-44">
          <mxGeometry x="0.047" y="7" relative="1" as="geometry">
            <mxPoint as="offset" />
          </mxGeometry>
        </mxCell>
        <mxCell id="hUjVaZttQKEgmbLeLdVR-46" style="edgeStyle=orthogonalEdgeStyle;rounded=0;orthogonalLoop=1;jettySize=auto;html=1;exitX=0.25;exitY=0;exitDx=0;exitDy=0;entryX=1;entryY=0.5;entryDx=0;entryDy=0;" edge="1" parent="1" source="hUjVaZttQKEgmbLeLdVR-35" target="8inZqM1Nh-mBHfwORftA-1">
          <mxGeometry relative="1" as="geometry">
            <mxPoint x="1090" y="-190" as="targetPoint" />
            <Array as="points">
              <mxPoint x="1400" y="-190" />
              <mxPoint x="790" y="-190" />
            </Array>
          </mxGeometry>
        </mxCell>
        <mxCell id="hUjVaZttQKEgmbLeLdVR-47" value="confirm_added" style="edgeLabel;html=1;align=center;verticalAlign=middle;resizable=0;points=[];" vertex="1" connectable="0" parent="hUjVaZttQKEgmbLeLdVR-46">
          <mxGeometry x="0.0336" y="-2" relative="1" as="geometry">
            <mxPoint as="offset" />
          </mxGeometry>
        </mxCell>
        <mxCell id="hUjVaZttQKEgmbLeLdVR-35" value="2.25" style="swimlane;childLayout=stackLayout;horizontal=1;startSize=50;horizontalStack=0;rounded=1;fontSize=14;fontStyle=0;strokeWidth=2;resizeParent=0;resizeLast=1;shadow=0;dashed=0;align=center;arcSize=4;whiteSpace=wrap;html=1;" vertex="1" parent="1">
          <mxGeometry x="1360" y="-140" width="160" height="120" as="geometry" />
        </mxCell>
        <mxCell id="hUjVaZttQKEgmbLeLdVR-39" value="Save_Car_Info" style="text;html=1;align=center;verticalAlign=middle;resizable=0;points=[];autosize=1;strokeColor=none;fillColor=none;" vertex="1" parent="1">
          <mxGeometry x="1380" y="-82" width="100" height="30" as="geometry" />
        </mxCell>
        <mxCell id="hUjVaZttQKEgmbLeLdVR-56" style="edgeStyle=orthogonalEdgeStyle;rounded=0;orthogonalLoop=1;jettySize=auto;html=1;exitX=0.5;exitY=0;exitDx=0;exitDy=0;entryX=0;entryY=1;entryDx=0;entryDy=0;" edge="1" parent="1" source="hUjVaZttQKEgmbLeLdVR-50" target="hll2jXJH_OL2cmdzYWr9-58">
          <mxGeometry relative="1" as="geometry">
            <Array as="points">
              <mxPoint x="-1670" y="830" />
              <mxPoint x="-425" y="830" />
            </Array>
          </mxGeometry>
        </mxCell>
        <mxCell id="hUjVaZttQKEgmbLeLdVR-59" value="pull_data" style="edgeLabel;html=1;align=center;verticalAlign=middle;resizable=0;points=[];" vertex="1" connectable="0" parent="hUjVaZttQKEgmbLeLdVR-56">
          <mxGeometry x="0.0424" y="-8" relative="1" as="geometry">
            <mxPoint as="offset" />
          </mxGeometry>
        </mxCell>
        <mxCell id="hUjVaZttQKEgmbLeLdVR-66" style="edgeStyle=orthogonalEdgeStyle;rounded=0;orthogonalLoop=1;jettySize=auto;html=1;exitX=0;exitY=0;exitDx=0;exitDy=0;entryX=1;entryY=0.5;entryDx=0;entryDy=0;" edge="1" parent="1" source="hUjVaZttQKEgmbLeLdVR-50" target="hUjVaZttQKEgmbLeLdVR-63">
          <mxGeometry relative="1" as="geometry" />
        </mxCell>
        <mxCell id="hUjVaZttQKEgmbLeLdVR-67" value="raw_data" style="edgeLabel;html=1;align=center;verticalAlign=middle;resizable=0;points=[];" vertex="1" connectable="0" parent="hUjVaZttQKEgmbLeLdVR-66">
          <mxGeometry x="0.2838" y="-8" relative="1" as="geometry">
            <mxPoint as="offset" />
          </mxGeometry>
        </mxCell>
        <mxCell id="hUjVaZttQKEgmbLeLdVR-50" value="2.26" style="swimlane;childLayout=stackLayout;horizontal=1;startSize=50;horizontalStack=0;rounded=1;fontSize=14;fontStyle=0;strokeWidth=2;resizeParent=0;resizeLast=1;shadow=0;dashed=0;align=center;arcSize=4;whiteSpace=wrap;html=1;" vertex="1" parent="1">
          <mxGeometry x="-1750" y="930" width="160" height="120" as="geometry" />
        </mxCell>
        <mxCell id="hUjVaZttQKEgmbLeLdVR-55" value="Retrieve_Car" style="text;html=1;align=center;verticalAlign=middle;resizable=0;points=[];autosize=1;strokeColor=none;fillColor=none;" vertex="1" parent="1">
          <mxGeometry x="-1715" y="998" width="90" height="30" as="geometry" />
        </mxCell>
        <mxCell id="hUjVaZttQKEgmbLeLdVR-71" style="edgeStyle=orthogonalEdgeStyle;rounded=0;orthogonalLoop=1;jettySize=auto;html=1;exitX=1;exitY=0;exitDx=0;exitDy=0;entryX=0;entryY=0.25;entryDx=0;entryDy=0;" edge="1" parent="1" source="hUjVaZttQKEgmbLeLdVR-61" target="WPqpw8OH2dosxsMt212a-1">
          <mxGeometry relative="1" as="geometry" />
        </mxCell>
        <mxCell id="hUjVaZttQKEgmbLeLdVR-72" value="display_info" style="edgeLabel;html=1;align=center;verticalAlign=middle;resizable=0;points=[];" vertex="1" connectable="0" parent="hUjVaZttQKEgmbLeLdVR-71">
          <mxGeometry x="-0.0482" y="-5" relative="1" as="geometry">
            <mxPoint as="offset" />
          </mxGeometry>
        </mxCell>
        <mxCell id="hUjVaZttQKEgmbLeLdVR-61" value="2.28" style="swimlane;childLayout=stackLayout;horizontal=1;startSize=50;horizontalStack=0;rounded=1;fontSize=14;fontStyle=0;strokeWidth=2;resizeParent=0;resizeLast=1;shadow=0;dashed=0;align=center;arcSize=4;whiteSpace=wrap;html=1;" vertex="1" parent="1">
          <mxGeometry x="-2470" y="230" width="160" height="120" as="geometry" />
        </mxCell>
        <mxCell id="hUjVaZttQKEgmbLeLdVR-69" style="edgeStyle=orthogonalEdgeStyle;rounded=0;orthogonalLoop=1;jettySize=auto;html=1;exitX=0.5;exitY=0;exitDx=0;exitDy=0;entryX=0.5;entryY=1;entryDx=0;entryDy=0;" edge="1" parent="1" source="hUjVaZttQKEgmbLeLdVR-63" target="hUjVaZttQKEgmbLeLdVR-61">
          <mxGeometry relative="1" as="geometry" />
        </mxCell>
        <mxCell id="hUjVaZttQKEgmbLeLdVR-70" value="viewable_format" style="edgeLabel;html=1;align=center;verticalAlign=middle;resizable=0;points=[];" vertex="1" connectable="0" parent="hUjVaZttQKEgmbLeLdVR-69">
          <mxGeometry x="-0.0236" y="2" relative="1" as="geometry">
            <mxPoint as="offset" />
          </mxGeometry>
        </mxCell>
        <mxCell id="hUjVaZttQKEgmbLeLdVR-63" value="2.27" style="swimlane;childLayout=stackLayout;horizontal=1;startSize=50;horizontalStack=0;rounded=1;fontSize=14;fontStyle=0;strokeWidth=2;resizeParent=0;resizeLast=1;shadow=0;dashed=0;align=center;arcSize=4;whiteSpace=wrap;html=1;" vertex="1" parent="1">
          <mxGeometry x="-2530" y="750" width="160" height="120" as="geometry" />
        </mxCell>
        <mxCell id="hUjVaZttQKEgmbLeLdVR-65" value="Format_Info" style="text;html=1;align=center;verticalAlign=middle;resizable=0;points=[];autosize=1;strokeColor=none;fillColor=none;" vertex="1" parent="hUjVaZttQKEgmbLeLdVR-63">
          <mxGeometry y="50" width="160" height="70" as="geometry" />
        </mxCell>
        <mxCell id="hUjVaZttQKEgmbLeLdVR-68" value="Show_Info" style="text;html=1;align=center;verticalAlign=middle;resizable=0;points=[];autosize=1;strokeColor=none;fillColor=none;" vertex="1" parent="1">
          <mxGeometry x="-2440" y="298" width="80" height="30" as="geometry" />
        </mxCell>
      </root>
    </mxGraphModel>
  </diagram>
</mxfile>
